<svg xmlns="http://www.w3.org/2000/svg" viewBox="0 0 1280 720" role="img" aria-label="He-Man OpenBOR thumbnail">
  <defs>
    <linearGradient id="bg" x1="0" x2="1" y1="0" y2="1">
      <stop offset="0%" stop-color="#0a0f22"/>
      <stop offset="55%" stop-color="#17113a"/>
      <stop offset="100%" stop-color="#2b0f3f"/>
    </linearGradient>
    <radialGradient id="glow" cx="50%" cy="25%" r="70%">
      <stop offset="0%" stop-color="#26e6ff" stop-opacity=".32"/>
      <stop offset="50%" stop-color="#8a5cff" stop-opacity=".16"/>
      <stop offset="100%" stop-color="#000000" stop-opacity="0"/>
    </radialGradient>
    <linearGradient id="steel" x1="0" x2="0" y1="0" y2="1">
      <stop offset="0%" stop-color="#f6d86f"/>
      <stop offset="100%" stop-color="#c6981b"/>
    </linearGradient>
    <filter id="soft"><feGaussianBlur stdDeviation="18"/></filter>
  </defs>

  <rect width="1280" height="720" fill="url(#bg)"/>
  <rect width="1280" height="720" fill="url(#glow)"/>

  <circle cx="980" cy="120" r="130" fill="#26e6ff" opacity=".11" filter="url(#soft)"/>
  <circle cx="210" cy="170" r="150" fill="#8a5cff" opacity=".14" filter="url(#soft)"/>

  <g opacity=".75">
    <circle cx="85" cy="100" r="2" fill="#fff"/>
    <circle cx="180" cy="60" r="1.6" fill="#fff"/>
    <circle cx="320" cy="140" r="2" fill="#fff"/>
    <circle cx="430" cy="80" r="1.5" fill="#fff"/>
    <circle cx="1080" cy="70" r="1.8" fill="#fff"/>
    <circle cx="1180" cy="135" r="1.7" fill="#fff"/>
    <circle cx="1030" cy="210" r="1.4" fill="#fff"/>
  </g>

  <rect x="58" y="48" width="260" height="64" rx="18" fill="#0b1026" stroke="#26e6ff" stroke-opacity=".35"/>
  <text x="92" y="90" font-family="Arial, Helvetica, sans-serif" font-size="34" font-weight="700" fill="#e9efff">OPENBOR GAMING</text>

  <rect x="74" y="545" width="620" height="112" rx="28" fill="#0b1026" fill-opacity=".82" stroke="#8a5cff" stroke-opacity=".28"/>
  <text x="108" y="603" font-family="Arial, Helvetica, sans-serif" font-size="58" font-weight="800" fill="#ffffff">HE-MAN</text>
  <text x="108" y="644" font-family="Arial, Helvetica, sans-serif" font-size="30" font-weight="700" fill="#26e6ff">Masters of the Universe</text>

  <g transform="translate(785 105)">
    <ellipse cx="145" cy="480" rx="160" ry="24" fill="#000" opacity=".28"/>
    <path d="M132 90c52 0 86 40 86 95v122h-172V185c0-55 34-95 86-95z" fill="#d4a62f"/>
    <path d="M95 129h74v102H95z" fill="#f4c756"/>
    <path d="M37 183h55v152H20V230c0-19 7-35 17-47z" fill="#6b4333"/>
    <path d="M228 183h-55v152h72V230c0-19-7-35-17-47z" fill="#6b4333"/>
    <path d="M92 307h38v176H76V346c0-15 6-28 16-39z" fill="#b73434"/>
    <path d="M134 307h38v176h54V346c0-15-6-28-16-39z" fill="#b73434"/>
    <rect x="67" y="476" width="68" height="28" rx="10" fill="#7c532e"/>
    <rect x="141" y="476" width="68" height="28" rx="10" fill="#7c532e"/>
    <path d="M96 58c10-25 63-36 96 0l10 28H86z" fill="#f6d86f"/>
    <circle cx="132" cy="63" r="42" fill="#f3c39f"/>
    <path d="M95 43c8-32 73-36 90 3-8 2-17 4-29 4-23 0-43-3-61-7z" fill="#7f5a2d"/>
    <rect x="128" y="136" width="16" height="305" rx="8" fill="url(#steel)"/>
    <rect x="104" y="116" width="64" height="18" rx="8" fill="url(#steel)"/>
    <polygon points="136,76 165,118 107,118" fill="#d0ecff"/>
  </g>

  <rect x="922" y="532" width="266" height="110" rx="24" fill="#0b1026" fill-opacity=".82" stroke="#ff4fd8" stroke-opacity=".28"/>
  <text x="958" y="590" font-family="Arial, Helvetica, sans-serif" font-size="34" font-weight="800" fill="#ffffff">ALT DÜNYA</text>
  <text x="958" y="624" font-family="Arial, Helvetica, sans-serif" font-size="20" font-weight="700" fill="#ff4fd8">RETRO HUB</text>
</svg>
