<svg xmlns="http://www.w3.org/2000/svg" viewBox="0 0 1280 720" role="img" aria-label="OpenBOR thumbnail">
  <defs>
    <linearGradient id="bg" x1="0" x2="1" y1="0" y2="1">
      <stop offset="0%" stop-color="#091020"/>
      <stop offset="55%" stop-color="#121935"/>
      <stop offset="100%" stop-color="#23103f"/>
    </linearGradient>
    <radialGradient id="glow" cx="50%" cy="30%" r="70%">
      <stop offset="0%" stop-color="#26e6ff" stop-opacity=".25"/>
      <stop offset="50%" stop-color="#8a5cff" stop-opacity=".18"/>
      <stop offset="100%" stop-color="#000000" stop-opacity="0"/>
    </radialGradient>
  </defs>
  <rect width="1280" height="720" fill="url(#bg)"/>
  <rect width="1280" height="720" fill="url(#glow)"/>

  <rect x="72" y="64" width="310" height="64" rx="20" fill="#0b1026" stroke="#26e6ff" stroke-opacity=".35"/>
  <text x="109" y="106" font-family="Arial, Helvetica, sans-serif" font-size="34" font-weight="700" fill="#e9efff">OPENBOR GAMING</text>

  <g transform="translate(210 175)">
    <rect x="0" y="0" width="180" height="260" rx="26" fill="#171d38" stroke="#26e6ff" stroke-opacity=".22"/>
    <rect x="38" y="32" width="104" height="82" rx="16" fill="#26e6ff" opacity=".15"/>
    <rect x="54" y="142" width="72" height="72" rx="12" fill="#8a5cff" opacity=".22"/>
    <circle cx="90" cy="250" r="20" fill="#ff4fd8" opacity=".45"/>
  </g>
  <g transform="translate(466 135)">
    <rect x="0" y="0" width="250" height="340" rx="32" fill="#171d38" stroke="#8a5cff" stroke-opacity=".22"/>
    <rect x="48" y="48" width="154" height="108" rx="22" fill="#8a5cff" opacity=".18"/>
    <rect x="48" y="184" width="154" height="108" rx="22" fill="#26e6ff" opacity=".16"/>
  </g>
  <g transform="translate(790 175)">
    <rect x="0" y="0" width="180" height="260" rx="26" fill="#171d38" stroke="#ff4fd8" stroke-opacity=".22"/>
    <rect x="38" y="32" width="104" height="82" rx="16" fill="#ff4fd8" opacity=".14"/>
    <rect x="54" y="142" width="72" height="72" rx="12" fill="#26e6ff" opacity=".22"/>
    <circle cx="90" cy="250" r="20" fill="#8a5cff" opacity=".45"/>
  </g>

  <rect x="92" y="550" width="612" height="108" rx="28" fill="#0b1026" fill-opacity=".82" stroke="#8a5cff" stroke-opacity=".28"/>
  <text x="124" y="608" font-family="Arial, Helvetica, sans-serif" font-size="58" font-weight="800" fill="#ffffff">OPENBOR</text>
  <text x="124" y="646" font-family="Arial, Helvetica, sans-serif" font-size="28" font-weight="700" fill="#26e6ff">AltDünya Pack v1.0</text>

  <rect x="940" y="540" width="246" height="104" rx="24" fill="#0b1026" fill-opacity=".82" stroke="#ff4fd8" stroke-opacity=".28"/>
  <text x="970" y="594" font-family="Arial, Helvetica, sans-serif" font-size="34" font-weight="800" fill="#ffffff">ALT DÜNYA</text>
  <text x="970" y="626" font-family="Arial, Helvetica, sans-serif" font-size="20" font-weight="700" fill="#ff4fd8">RETRO HUB</text>
</svg>
